<svg id="Layer_1" data-name="Layer 1" xmlns="http://www.w3.org/2000/svg" viewBox="0 0 512 512"><defs><style>.cls-1{fill:#f9c882;}.cls-2{fill:#141f38;}.cls-3{fill:#5ecaef;}</style></defs><title>thumb-up-filled</title><path class="cls-1" d="M137.85,440.12c41.62,1.9,52.51,12.8,52.51,12.8H407a32.82,32.82,0,1,0,0-65.64h26.26a32.82,32.82,0,1,0,0-65.64h26.26a32.82,32.82,0,0,0,0-65.64h13.13a32.82,32.82,0,0,0,0-65.64H334.77S361,45.95,295.38,45.95c0,0-39.38,0-39.38,52.51,0,50.48-12.14,149.53-118.15,157.08"/><path class="cls-2" d="M407,459.49H190.36a6.56,6.56,0,0,1-4.64-1.92h0s-10.82-9.18-48.17-10.88a6.56,6.56,0,1,1,.6-13.12c34.08,1.56,49.06,9.1,54.44,12.79H407a26.26,26.26,0,0,0,0-52.51,6.56,6.56,0,1,1,0-13.13h26.26a26.26,26.26,0,1,0,0-52.51,6.56,6.56,0,0,1,0-13.13h26.26a26.26,26.26,0,0,0,0-52.51,6.56,6.56,0,0,1,0-13.13h13.13a26.26,26.26,0,1,0,0-52.51H334.77a6.57,6.57,0,0,1-6.46-7.74c.17-.94,16.65-93.85-10.47-126.33-5.81-7-13.15-10.34-22.46-10.34-3.32,0-32.82,1.72-32.82,45.95,0,57.81-16.14,155.93-124.25,163.62a6.44,6.44,0,0,1-7-6.08,6.56,6.56,0,0,1,6.08-7c92.62-6.6,112.06-85.5,112.06-150.53,0-58.4,45.49-59.08,45.95-59.08,13.25,0,24.2,5.07,32.54,15.06C354.22,86,346,159.58,342.47,183.79H472.62a39.38,39.38,0,0,1,13.78,76.28,39.37,39.37,0,0,1-23.93,68,39.36,39.36,0,0,1-26.26,65.64A39.36,39.36,0,0,1,407,459.49Z"/><rect class="cls-3" x="6.56" y="229.74" width="131.28" height="236.31" rx="26.26" ry="26.26"/><path class="cls-2" d="M111.59,472.62H32.82A32.86,32.86,0,0,1,0,439.79V256a32.86,32.86,0,0,1,32.82-32.82h78.77A32.86,32.86,0,0,1,144.41,256V439.79A32.86,32.86,0,0,1,111.59,472.62ZM32.82,236.31A19.71,19.71,0,0,0,13.13,256V439.79a19.71,19.71,0,0,0,19.69,19.69h78.77a19.71,19.71,0,0,0,19.69-19.69V256a19.71,19.71,0,0,0-19.69-19.69Z"/><circle class="cls-2" cx="72.21" cy="413.54" r="13.13"/></svg>